<svg id="Calque_1" data-name="Calque 1" xmlns="http://www.w3.org/2000/svg" viewBox="0 0 1080 1080"><defs><style>.cls-1{fill:#fff;}</style></defs><path class="cls-1" d="M810.49,501.26a3,3,0,1,0,0,6,3.69,3.69,0,0,0,2.62-1.09v2.39a4.48,4.48,0,0,1-3,1.05,5.33,5.33,0,0,1,0-10.66,4.48,4.48,0,0,1,3,1v2.37a3.62,3.62,0,0,0-2.62-1.07"/><path class="cls-1" d="M810,514.76a10.52,10.52,0,1,1,10.52-10.52A10.53,10.53,0,0,1,810,514.76m0-19.12a8.6,8.6,0,1,0,8.6,8.6,8.6,8.6,0,0,0-8.6-8.6"/><path class="cls-1" d="M413.17,555.15V497.07H432q10.69,0,13.95.87a15.23,15.23,0,0,1,8.36,5.69q3.36,4.37,3.37,11.31a18.88,18.88,0,0,1-1.95,9,15.75,15.75,0,0,1-4.93,5.72,16.94,16.94,0,0,1-6.08,2.76,67.36,67.36,0,0,1-12.16.83H424.9v21.91Zm11.73-48.26v16.48h6.42q6.93,0,9.27-.91a7.57,7.57,0,0,0,3.66-2.85,7.77,7.77,0,0,0,1.33-4.52,7.48,7.48,0,0,0-1.86-5.22,8,8,0,0,0-4.72-2.58,56.69,56.69,0,0,0-8.43-.4Z"/><path class="cls-1" d="M467.29,555.15V497.07h43.07v9.82H479v12.88h29.16v9.79H479v15.8h32.45v9.79Z"/><path class="cls-1" d="M521.45,555.15V497.07h24.68q9.32,0,13.53,1.56a13.36,13.36,0,0,1,6.76,5.57,16.74,16.74,0,0,1,2.53,9.15,15.52,15.52,0,0,1-3.84,10.8q-3.84,4.26-11.49,5.37a27.26,27.26,0,0,1,6.28,4.87,66.05,66.05,0,0,1,6.68,9.43l7.09,11.33h-14l-8.48-12.64A82,82,0,0,0,545,534a9,9,0,0,0-3.52-2.41,19.17,19.17,0,0,0-5.91-.66h-2.37v24.25Zm11.73-33.52h8.67q8.45,0,10.54-.71a6.35,6.35,0,0,0,3.29-2.46,7.57,7.57,0,0,0,1.19-4.36,6.93,6.93,0,0,0-1.57-4.73,7.18,7.18,0,0,0-4.41-2.28c-.95-.13-3.81-.2-8.56-.2h-9.15Z"/><path class="cls-1" d="M580.09,555.15V497.07H619.9v9.82H591.81v13.75h24.25v9.83H591.81v24.68Z"/><path class="cls-1" d="M629.57,555.15V497.07h43.06v9.82H641.3v12.88h29.15v9.79H641.3v15.8h32.44v9.79Z"/><path class="cls-1" d="M720.85,533.79l11.37,3.61q-2.61,9.51-8.7,14.12t-15.43,4.62q-11.57,0-19-7.9t-7.44-21.62q0-14.49,7.48-22.52t19.69-8q10.66,0,17.32,6.3,4,3.72,5.94,10.69l-11.61,2.78a12,12,0,0,0-12.24-9.75,13.21,13.21,0,0,0-10.48,4.64q-4,4.63-4,15,0,11,4,15.69a12.86,12.86,0,0,0,10.3,4.68,11.73,11.73,0,0,0,8-3Q719.38,540.17,720.85,533.79Z"/><path class="cls-1" d="M755.36,555.15V506.89H738.12v-9.82h46.16v9.82h-17.2v48.26Z"/><path class="cls-1" d="M413.21,632.83V574.75H437.9q9.3,0,13.53,1.57a13.31,13.31,0,0,1,6.75,5.56,16.75,16.75,0,0,1,2.54,9.15,15.53,15.53,0,0,1-3.85,10.8q-3.84,4.26-11.49,5.37a27.26,27.26,0,0,1,6.28,4.87,66.05,66.05,0,0,1,6.68,9.43l7.09,11.33h-14l-8.48-12.64a81.45,81.45,0,0,0-6.18-8.53,8.93,8.93,0,0,0-3.53-2.42,19.21,19.21,0,0,0-5.9-.65h-2.38v24.24Zm11.73-33.52h8.68c5.62,0,9.14-.23,10.54-.71a6.3,6.3,0,0,0,3.28-2.45,7.54,7.54,0,0,0,1.19-4.36,7,7,0,0,0-1.56-4.74,7.24,7.24,0,0,0-4.42-2.28q-1.42-.19-8.56-.19h-9.15Z"/><path class="cls-1" d="M471.77,632.83V574.75h43.06v9.83H483.5v12.87h29.16v9.79H483.5v15.81h32.44v9.78Z"/><path class="cls-1" d="M522.92,613.93l11.41-1.11q1,5.74,4.18,8.44T547,624q5.67,0,8.54-2.4a7.12,7.12,0,0,0,2.87-5.61,5.29,5.29,0,0,0-1.2-3.5,9.65,9.65,0,0,0-4.22-2.52c-1.38-.47-4.51-1.32-9.39-2.53q-9.44-2.34-13.24-5.75A15.11,15.11,0,0,1,525,590a14.93,14.93,0,0,1,2.51-8.3,15.84,15.84,0,0,1,7.25-5.88,29,29,0,0,1,11.43-2q10.93,0,16.46,4.79a17,17,0,0,1,5.81,12.8l-11.73.52c-.5-3-1.58-5.13-3.23-6.44s-4.13-2-7.43-2-6.07.7-8,2.1a4.23,4.23,0,0,0-1.86,3.6A4.47,4.47,0,0,0,538,592.7q2.22,1.86,10.78,3.88a57.23,57.23,0,0,1,12.66,4.18,16.32,16.32,0,0,1,6.41,5.9,18.28,18.28,0,0,1-.45,18.6,16.6,16.6,0,0,1-7.85,6.48,32.92,32.92,0,0,1-12.63,2.12q-11,0-16.92-5.09T522.92,613.93Z"/><path class="cls-1" d="M580,632.83V574.75h43.06v9.83H591.73v12.87h29.16v9.79H591.73v15.81h32.45v9.78Z"/><path class="cls-1" d="M686.5,632.83H673.74l-5.07-13.19H645.46l-4.8,13.19H628.22l22.62-58.08h12.4Zm-21.59-23-8-21.55-7.85,21.55Z"/><path class="cls-1" d="M692.76,632.83V574.75h24.68q9.31,0,13.53,1.57a13.33,13.33,0,0,1,6.76,5.56,16.74,16.74,0,0,1,2.53,9.15,15.52,15.52,0,0,1-3.84,10.8q-3.84,4.26-11.49,5.37a27.26,27.26,0,0,1,6.28,4.87,66.19,66.19,0,0,1,6.67,9.43l7.1,11.33H731l-8.48-12.64a81.45,81.45,0,0,0-6.18-8.53,8.9,8.9,0,0,0-3.52-2.42,19.28,19.28,0,0,0-5.91-.65h-2.37v24.24Zm11.73-33.52h8.67c5.63,0,9.14-.23,10.54-.71a6.28,6.28,0,0,0,3.29-2.45,7.61,7.61,0,0,0,1.19-4.36,6.94,6.94,0,0,0-1.57-4.74,7.18,7.18,0,0,0-4.41-2.28q-1.44-.19-8.56-.19h-9.15Z"/><path class="cls-1" d="M788.48,611.48l11.37,3.6q-2.62,9.51-8.7,14.13t-15.43,4.61q-11.57,0-19-7.9t-7.44-21.61q0-14.5,7.48-22.53t19.69-8q10.67,0,17.32,6.3,4,3.72,5.94,10.7l-11.61,2.77a12,12,0,0,0-12.24-9.75,13.21,13.21,0,0,0-10.48,4.64q-4,4.64-4,15,0,11,4,15.69a12.85,12.85,0,0,0,10.3,4.68,11.73,11.73,0,0,0,8-3Q787,617.86,788.48,611.48Z"/><path class="cls-1" d="M810,632.83V574.75h11.73v22.86h23V574.75h11.72v58.08H844.66V607.44h-23v25.39Z"/><path class="cls-1" d="M356.28,467.29q-10.86-14.13-27-18.34-10.47-2.81-45-2.81H223.62V633.51h37.83V562.83h24.66q10.25,0,18.53-.42l2.74-.16a139.36,139.36,0,0,0,18-2.11,52.92,52.92,0,0,0,17-7.12c.9-.56,1.79-1.14,2.67-1.76a51.39,51.39,0,0,0,15.9-18.47q6.27-11.74,6.27-29Q367.15,481.42,356.28,467.29Zm-94.83,10.55h18.28q20.44,0,27.22,1.27a26.18,26.18,0,0,1,15.21,8.31q6,6.65,6,16.87a25.29,25.29,0,0,1-4.27,14.57,24.78,24.78,0,0,1-11.83,9.2q-7.53,2.94-29.9,2.94H261.45Z"/><polygon class="cls-1" points="385.89 633.86 345.25 633.86 309.61 571.13 309.08 570.21 351.58 570.21 352.08 571.13 385.89 633.86"/></svg>