<?xml version="1.0" standalone="no"?>
<!DOCTYPE svg PUBLIC "-//W3C//DTD SVG 20010904//EN"
 "http://www.w3.org/TR/2001/REC-SVG-20010904/DTD/svg10.dtd">
<svg version="1.0" xmlns="http://www.w3.org/2000/svg"
 width="1080.000000pt" height="1080.000000pt" viewBox="0 0 1080.000000 1080.000000"
 preserveAspectRatio="xMidYMid meet">

<g transform="translate(0.000000,1080.000000) scale(0.100000,-0.100000)"
fill="#000000" stroke="none">
<path d="M1840 5405 l0 -1055 210 0 210 0 0 393 0 394 283 6 c382 9 457 21
601 95 142 74 256 230 291 397 34 164 10 381 -57 509 -68 129 -214 244 -355
281 -90 24 -342 35 -780 35 l-403 0 0 -1055z m979 670 c69 -21 161 -109 179
-171 21 -73 15 -173 -14 -232 -68 -137 -179 -172 -546 -172 l-178 0 0 301 0
301 253 -5 c200 -3 263 -8 306 -22z"/>
<path d="M8395 5910 c-66 -27 -92 -119 -49 -177 48 -64 146 -61 191 6 27 40
29 71 7 117 -26 54 -92 78 -149 54z m94 -25 c86 -44 50 -175 -48 -175 -47 0
-77 21 -91 64 -13 41 -2 75 36 105 31 25 64 27 103 6z"/>
<path d="M8394 5835 c-14 -21 -15 -31 -6 -51 16 -33 56 -51 77 -34 21 18 19
29 -5 23 -20 -5 -50 12 -50 28 0 18 33 39 52 33 15 -4 19 -2 16 7 -3 8 -19 15
-36 17 -24 3 -34 -2 -48 -23z"/>
<path d="M7184 5874 c-60 -21 -119 -77 -151 -141 -23 -48 -28 -73 -31 -154 -5
-115 13 -187 61 -251 93 -122 299 -145 413 -45 42 37 83 103 84 134 0 6 -27
20 -59 31 l-60 20 -23 -46 c-58 -117 -194 -122 -258 -11 -22 39 -25 56 -25
144 0 115 18 164 76 203 28 20 44 23 92 20 46 -4 63 -10 87 -33 17 -16 33 -39
36 -51 5 -21 7 -21 67 -7 34 8 64 17 67 19 2 3 -8 29 -23 58 -47 89 -119 127
-241 125 -39 0 -90 -7 -112 -15z"/>
<path d="M3970 5555 l0 -325 65 0 64 0 3 123 3 122 121 5 c110 5 125 8 161 32
127 84 104 310 -36 357 -20 6 -104 11 -207 11 l-174 0 0 -325z m333 195 c34
-27 43 -70 22 -110 -21 -40 -49 -50 -146 -50 l-79 0 0 90 0 90 89 0 c73 0 93
-3 114 -20z"/>
<path d="M4580 5555 l0 -325 250 0 250 0 0 55 0 55 -185 0 -185 0 0 90 0 90
165 0 165 0 0 55 0 55 -165 0 -165 0 0 70 0 70 178 2 177 3 3 53 3 52 -245 0
-246 0 0 -325z"/>
<path d="M5190 5555 l0 -325 65 0 65 0 0 135 0 135 48 0 c26 0 57 -7 69 -15
12 -8 58 -69 103 -135 l81 -120 79 0 79 0 -57 93 c-31 50 -80 115 -108 143
l-51 52 37 11 c81 24 123 83 123 171 0 84 -32 134 -106 165 -28 12 -79 15
-232 15 l-195 0 0 -325z m375 190 c16 -15 25 -36 25 -55 0 -19 -9 -40 -25 -55
-23 -24 -31 -25 -135 -25 l-110 0 0 80 0 80 110 0 c104 0 112 -1 135 -25z"/>
<path d="M5850 5555 l0 -325 65 0 64 0 3 138 3 137 138 3 137 3 0 54 0 55
-140 0 -140 0 0 75 0 75 160 0 160 0 0 55 0 55 -225 0 -225 0 0 -325z"/>
<path d="M6410 5555 l0 -325 250 0 250 0 0 55 0 55 -185 0 -185 0 0 90 0 90
165 0 165 0 0 55 0 55 -165 0 -165 0 0 70 0 70 175 0 175 0 0 55 0 55 -240 0
-240 0 0 -325z"/>
<path d="M7630 5825 l0 -55 100 0 100 0 0 -270 0 -270 65 0 65 0 0 270 0 270
95 0 95 0 0 55 0 55 -260 0 -260 0 0 -55z"/>
</g>
</svg>
